<svg>
    <symbol>
        <svg id="logo" width="265" height="68" viewBox="0 0 265 68" fill="none" xmlns="http://www.w3.org/2000/svg">
            <path d="M40.5659 24.9077V28.7955H31.0591V42.3821H25.5479V28.7955H16.041V24.9077H40.5659V24.9077Z" fill="#DC1919"/>
            <path d="M60.9403 24.9077C62.1383 24.9077 63.2287 25.1919 64.2127 25.7589C65.1955 26.3274 65.9808 27.0875 66.566 28.0409C67.1512 28.9942 67.4438 30.0524 67.4438 31.2126C67.4438 32.3743 67.1512 33.4338 66.566 34.3913C65.9808 35.3488 65.1955 36.1103 64.2127 36.6732C63.2287 37.2361 62.1383 37.5175 60.9403 37.5175H48.6702V42.3807H43.1729V24.9077H43.4144H48.6702H60.9403ZM59.4372 33.6435C60.126 33.6435 60.7153 33.4049 61.2067 32.9289C61.698 32.4529 61.9437 31.8804 61.9437 31.2126C61.9437 30.5449 61.698 29.9737 61.2067 29.4964C60.7153 29.0204 60.1246 28.7817 59.4372 28.7817H48.6688V33.6449H59.4372V33.6435Z" fill="#DC1919"/>
            <path d="M84.2851 24.9077L93.9535 42.3807H87.8391L85.9483 38.7399H74.6043L72.7134 42.3807H66.5991L76.2675 24.9077H84.2851ZM84.1098 35.1915L80.2742 27.7553L76.4262 35.1915H84.1098Z" fill="#DC1919"/>
            <path d="M107.186 38.9359C107.579 38.9359 108.109 38.9166 108.774 38.8779C109.439 38.8393 110.135 38.7179 110.86 38.5137C111.584 38.3109 112.245 37.9743 112.844 37.5066C113.443 37.0389 113.881 36.3849 114.158 35.5434H119.777C119.446 37.9274 118.24 39.7319 116.157 40.9584C114.074 42.1849 111.083 42.7975 107.186 42.7975C102.921 42.7975 99.7407 42.0607 97.6441 40.5873C95.5476 39.1138 94.5 36.9561 94.5 34.1127V33.1511C94.5 30.3077 95.5476 28.1499 97.6441 26.6765C99.7407 25.203 102.921 24.4663 107.186 24.4663C111.083 24.4663 114.073 25.0802 116.157 26.3054C118.24 27.5318 119.446 29.3323 119.777 31.708H114.158C113.881 30.8761 113.443 30.2263 112.844 29.7572C112.245 29.2895 111.584 28.9529 110.86 28.7501C110.135 28.5459 109.441 28.4245 108.774 28.3858C108.107 28.3472 107.579 28.3279 107.186 28.3279C106.828 28.3279 106.352 28.3431 105.757 28.3734C105.162 28.4038 104.534 28.4976 103.873 28.6535C103.212 28.8094 102.585 29.0646 101.996 29.4206C101.407 29.7765 100.921 30.2718 100.541 30.9092C100.162 31.5466 99.9711 32.3716 99.9711 33.3856V33.8671C99.9711 34.8811 100.162 35.7062 100.541 36.3435C100.921 36.9809 101.407 37.479 101.996 37.8391C102.585 38.1991 103.212 38.4571 103.873 38.613C104.534 38.7689 105.162 38.8628 105.757 38.8931C106.352 38.9207 106.828 38.9359 107.186 38.9359Z" fill="#DC1919"/>
            <path d="M146.214 24.9077V28.7955H136.707V42.3821H131.196V28.7955H121.689V24.9077H146.214V24.9077Z" fill="#DC1919"/>
            <path d="M158.31 24.5767H157.552V42.3352H158.31V24.5767Z" fill="#DC1919"/>
            <path d="M169.435 27.8979C169.435 26.9584 169.668 26.2313 170.134 25.7181C170.601 25.2049 171.233 24.9482 172.029 24.9482C172.675 24.9482 173.219 25.1207 173.661 25.4642C174.102 25.8091 174.366 26.3003 174.452 26.939L173.548 27.0246C173.476 26.5872 173.302 26.2548 173.026 26.0299C172.75 25.8036 172.417 25.6905 172.029 25.6905C171.527 25.6905 171.125 25.8864 170.823 26.2768C170.522 26.6673 170.37 27.2081 170.37 27.8965C170.37 28.5849 170.522 29.1258 170.829 29.5162C171.134 29.9066 171.541 30.1025 172.05 30.1025C172.452 30.1025 172.791 29.9825 173.067 29.7425C173.343 29.5024 173.521 29.1603 173.6 28.7146L174.504 28.7905C174.418 29.4431 174.152 29.9494 173.708 30.3081C173.263 30.6668 172.71 30.8462 172.05 30.8462C171.239 30.8462 170.601 30.5923 170.134 30.0818C169.668 29.5728 169.435 28.8443 169.435 27.8979Z" fill="#DC1919"/>
            <path d="M176.044 25.0776H180.006V30.7162H179.059V25.8516H176.884C176.861 26.1606 176.834 26.5869 176.798 27.1319C176.769 27.6631 176.745 28.0466 176.728 28.2839C176.71 28.5212 176.679 28.8151 176.636 29.1669C176.594 29.5187 176.543 29.7656 176.486 29.9091C176.428 30.0526 176.349 30.2085 176.249 30.3768C176.148 30.5451 176.026 30.6569 175.883 30.7107C175.739 30.7645 175.567 30.7907 175.367 30.7907C175.259 30.7907 175.104 30.7769 174.904 30.7479V29.9946C174.976 30.0015 175.062 30.0057 175.162 30.0057C175.32 30.0057 175.445 29.9381 175.539 29.8015C175.632 29.6649 175.709 29.3945 175.771 28.9889C175.832 28.5833 175.873 28.226 175.895 27.9183C175.917 27.6093 175.945 27.0753 175.981 26.3152C176.008 25.784 176.029 25.3715 176.044 25.0776Z" fill="#DC1919"/>
            <path d="M185.346 25.0776H186.357L184.258 31.3618C184.065 31.9854 183.834 32.4145 183.569 32.6477C183.304 32.8808 182.901 32.9981 182.363 32.9981C182.183 32.9981 181.975 32.9871 181.739 32.9664V32.2352C181.997 32.249 182.188 32.2572 182.309 32.2572C182.603 32.2572 182.825 32.1855 182.977 32.042C183.128 31.8985 183.268 31.6254 183.397 31.2239L183.558 30.7176H183.031L180.9 25.079H181.934L183.786 30.3409L185.346 25.0776Z" fill="#DC1919"/>
            <path d="M195.078 30.7161H193.916L192.021 28.23H191.321V30.7161H190.395V28.23H189.695L187.8 30.7161H186.638L188.984 27.7885L186.723 25.0762H187.843L189.662 27.4864H190.393V25.0776H191.319V27.4878H192.051L193.87 25.0776H194.989L192.729 27.7899L195.078 30.7161Z" fill="#DC1919"/>
            <path d="M198.35 25.2501C199.096 25.2501 199.7 25.5012 200.158 26.0034C200.617 26.5056 200.847 27.1871 200.847 28.048C200.847 28.9158 200.608 29.6001 200.13 30.0982C199.653 30.5976 199.005 30.8459 198.187 30.8459C196.406 30.8459 195.518 29.6512 195.518 27.263C195.518 26.0076 195.693 25.0501 196.045 24.3893C196.397 23.7298 196.971 23.3173 197.767 23.1517C197.918 23.1159 198.074 23.0855 198.235 23.0607C198.397 23.0358 198.569 23.0124 198.751 22.9903C198.934 22.9682 199.073 22.9503 199.165 22.9365C199.639 22.8648 200.012 22.7751 200.285 22.6675V23.4097C200.092 23.5311 199.758 23.6291 199.284 23.7008C199.177 23.716 199.011 23.7367 198.789 23.7657C198.566 23.7946 198.38 23.8195 198.228 23.8415C197.934 23.8774 197.685 23.9436 197.48 24.0402C197.276 24.1368 197.076 24.2913 196.883 24.5024C196.689 24.7135 196.535 25.0211 196.42 25.4226C196.306 25.8241 196.23 26.3235 196.194 26.9181C196.344 26.3952 196.605 25.9855 196.975 25.6916C197.348 25.3978 197.805 25.2501 198.35 25.2501ZM198.188 30.1037C198.72 30.1037 199.139 29.9188 199.448 29.5491C199.758 29.1793 199.911 28.6799 199.911 28.048C199.911 27.4162 199.756 26.9167 199.448 26.547C199.139 26.1773 198.72 25.9924 198.188 25.9924C197.65 25.9924 197.226 26.1773 196.918 26.547C196.609 26.9167 196.456 27.4175 196.456 28.048C196.456 28.6799 196.611 29.1793 196.918 29.5491C197.228 29.9188 197.651 30.1037 198.188 30.1037Z" fill="#DC1919"/>
            <path d="M201.602 29.2426C201.602 28.2314 202.341 27.6533 203.82 27.5098L205.499 27.3484V26.8103C205.499 26.4585 205.386 26.1743 205.16 25.955C204.933 25.7356 204.602 25.6308 204.165 25.6377C203.763 25.6377 203.433 25.7287 203.174 25.9122C202.916 26.0957 202.775 26.3702 202.754 26.7358H201.882C201.904 26.126 202.122 25.6763 202.539 25.3852C202.954 25.0941 203.497 24.9492 204.165 24.9492C204.904 24.9492 205.468 25.1244 205.855 25.4762C206.243 25.828 206.436 26.333 206.436 26.9938V30.7175H205.575V29.5558C205.396 29.9642 205.122 30.2815 204.757 30.5077C204.391 30.734 203.945 30.8471 203.422 30.8471C202.819 30.8471 202.365 30.6981 202.06 30.4001C201.753 30.1021 201.602 29.7158 201.602 29.2426ZM202.539 29.2095C202.539 29.4896 202.635 29.7186 202.83 29.898C203.025 30.0773 203.314 30.167 203.702 30.167C204.254 30.167 204.693 29.9931 205.016 29.6455C205.339 29.2978 205.501 28.8481 205.501 28.2948V27.9499L203.929 28.1113C203.001 28.1982 202.539 28.5639 202.539 29.2095Z" fill="#DC1919"/>
            <path d="M169.757 41.7533V36.1147H170.704V38.4932H173.622V36.1147H174.559V41.7533H173.622V39.2672H170.704V41.7533H169.757Z" fill="#DC1919"/>
            <path d="M175.667 38.9346C175.667 37.973 175.909 37.2418 176.393 36.7396C176.878 36.2374 177.522 35.9863 178.326 35.9863C179.151 35.9863 179.78 36.2416 180.215 36.7506C180.649 37.2597 180.867 38.0351 180.867 39.0753V39.205H176.614C176.65 39.8507 176.828 40.3446 177.147 40.6853C177.466 41.0261 177.884 41.1972 178.402 41.1972C179.133 41.1972 179.633 40.8744 179.898 40.2287L180.791 40.2825C180.64 40.7847 180.36 41.1779 179.952 41.4607C179.543 41.7435 179.026 41.8856 178.402 41.8856C177.562 41.8856 176.896 41.6359 176.405 41.1379C175.913 40.6371 175.667 39.9031 175.667 38.9346ZM176.625 38.5786H179.931C179.924 37.9909 179.775 37.526 179.484 37.1852C179.193 36.8445 178.807 36.6734 178.327 36.6734C177.854 36.6734 177.462 36.8362 177.154 37.1631C176.845 37.4901 176.668 37.962 176.625 38.5786Z" fill="#DC1919"/>
            <path d="M186.336 40.9794H186.993V43.271H186.1V41.7534H182.236V43.271H181.343V40.9794H181.762C181.848 40.7932 181.922 40.5683 181.983 40.3061C182.044 40.044 182.098 39.637 182.145 39.0852C182.192 38.5333 182.223 38.1263 182.241 37.8642C182.259 37.6021 182.294 37.0199 182.343 36.1162H186.338V40.9794H186.336ZM185.388 40.9794V36.8902H183.159C183.029 38.7334 182.926 39.8785 182.847 40.3227C182.796 40.5807 182.74 40.8001 182.675 40.9794H185.388Z" fill="#DC1919"/>
            <path d="M190.932 38.8478C192.038 38.9485 192.59 39.4079 192.59 40.2247C192.59 40.6689 192.429 41.0359 192.106 41.3228C191.783 41.6098 191.266 41.7533 190.556 41.7533H187.896V36.1147H190.426C191.079 36.1147 191.574 36.2444 191.911 36.5024C192.248 36.7604 192.418 37.1053 192.418 37.5358C192.419 38.267 191.923 38.7043 190.932 38.8478ZM188.844 36.8253V38.5691H190.351C190.731 38.5691 191.014 38.4905 191.196 38.3318C191.38 38.1745 191.471 37.9621 191.471 37.6972C191.471 37.1164 191.08 36.8253 190.298 36.8253H188.844V36.8253ZM190.448 41.0442C191.244 41.0442 191.643 40.7324 191.643 40.1074C191.643 39.4976 191.226 39.1927 190.394 39.1927H188.844V41.0442H190.448Z" fill="#DC1919"/>
            <path d="M197.253 36.1147H198.663V41.7533H197.759V36.7921L195.133 41.7533H193.711V36.1147H194.626V41.0759L197.253 36.1147Z" fill="#DC1919"/>
            <path d="M207.911 41.7532H206.749L204.854 39.2671H204.154V41.7532H203.228V39.2671H202.528L200.633 41.7532H199.471L201.817 38.8256L199.556 36.1133H200.676L202.495 38.5235H203.226V36.1147H204.152V38.5249H204.884L206.703 36.1147H207.822L205.562 38.827L207.911 41.7532Z" fill="#DC1919"/>
            <path d="M212.26 36.1147H213.67V41.7533H212.766V36.7921L210.14 41.7533H208.718V36.1147H209.633V41.0759L212.26 36.1147Z" fill="#DC1919"/>
            <path d="M220.28 36.1147H221.852V41.7533H220.937V36.7715L219.064 41.7533H217.88L216.018 36.7715V41.7533H215.103V36.1147H216.686L218.485 41.2373L220.28 36.1147Z" fill="#DC1919"/>
            <path d="M223.688 41.0923C223.203 40.5653 222.96 39.8452 222.96 38.9346C222.96 38.024 223.203 37.3039 223.688 36.7769C224.172 36.2498 224.82 35.9863 225.631 35.9863C226.443 35.9863 227.089 36.2498 227.569 36.7769C228.049 37.3039 228.291 38.024 228.291 38.9346C228.291 39.8452 228.051 40.5653 227.569 41.0923C227.089 41.6194 226.443 41.8829 225.631 41.8829C224.82 41.8829 224.172 41.6194 223.688 41.0923ZM224.365 37.3315C224.054 37.7329 223.898 38.2682 223.898 38.9346C223.898 39.6023 224.054 40.1363 224.365 40.5377C224.677 40.9392 225.1 41.1406 225.631 41.1406C226.154 41.1406 226.574 40.9392 226.886 40.5377C227.198 40.1363 227.354 39.601 227.354 38.9346C227.354 38.2669 227.198 37.7329 226.886 37.3315C226.574 36.93 226.156 36.7286 225.631 36.7286C225.1 36.7286 224.677 36.9286 224.365 37.3315Z" fill="#DC1919"/>
            <path d="M229.075 38.9345C229.075 37.995 229.308 37.2679 229.774 36.7547C230.241 36.2415 230.873 35.9849 231.67 35.9849C232.315 35.9849 232.859 36.1573 233.301 36.5008C233.743 36.8458 234.006 37.3369 234.092 37.9757L233.188 38.0612C233.116 37.6239 232.942 37.2914 232.666 37.0665C232.39 36.8402 232.057 36.7271 231.67 36.7271C231.167 36.7271 230.765 36.923 230.463 37.3134C230.162 37.7039 230.01 38.2447 230.01 38.9331C230.01 39.6216 230.162 40.1624 230.469 40.5528C230.774 40.9433 231.181 41.1392 231.69 41.1392C232.092 41.1392 232.431 41.0191 232.707 40.7791C232.983 40.539 233.162 40.1969 233.24 39.7513L234.144 39.8271C234.059 40.4797 233.792 40.986 233.348 41.3447C232.903 41.7034 232.35 41.8828 231.69 41.8828C230.879 41.8828 230.241 41.6289 229.774 41.1185C229.308 40.6094 229.075 39.8809 229.075 38.9345Z" fill="#DC1919"/>
            <path d="M234.587 36.8901V36.1147H239.346V36.8901H237.44V41.7547H236.493V36.8901H234.587Z" fill="#DC1919"/>
            <path d="M243.824 36.1147H245.234V41.7533H244.33V36.7921L241.704 41.7533H240.282V36.1147H241.197V41.0759L243.824 36.1147Z" fill="#DC1919"/>
        </svg>
    </symbol>
    <symbol>
        <svg id="down_arrow" width="14" height="14" viewBox="0 0 14 14" fill="none" xmlns="http://www.w3.org/2000/svg">
            <path d="M7.00013 8.50844L10.671 4.83752C10.8985 4.61002 11.2684 4.61002 11.4959 4.83752C11.7234 5.06502 11.7234 5.43485 11.4959 5.66235L7.41255 9.74569C7.18505 9.97377 6.81521 9.97377 6.58771 9.74569L2.50438 5.66235C2.27688 5.43485 2.27688 5.06502 2.50438 4.83752C2.73188 4.61002 3.10171 4.61002 3.32921 4.83752L7.00013 8.50844Z" fill="#B7B7B7"/>
        </svg>
    </symbol>
    <symbol>
        <svg id="right_arrow" width="14" height="12" viewBox="0 0 14 12" fill="none" xmlns="http://www.w3.org/2000/svg">
            <path d="M0.459793 6.75H10.0818L5.43459 10.9512L6.59559 12L13.2373 6L6.59559 9.53674e-07L5.43459 1.04883L10.0818 5.25H0.459793V6.75Z" fill="white"/>
        </svg>
    </symbol>
    <symbol>
        <svg id="left_arrow" width="13" height="13" viewBox="0 0 13 13" xmlns="http://www.w3.org/2000/svg">
            <path d="M13 7.3125H3.21041L7.93858 11.8638L6.75736 13L0 6.5L6.75736 -9.53674e-07L7.93858 1.13623L3.21041 5.6875H13V7.3125Z"/>
        </svg>
    </symbol>
    <symbol>
        <svg id="like" width="21" height="19" viewBox="0 0 21 19" xmlns="http://www.w3.org/2000/svg">
            <path d="M19.3341 1.8284C18.247 0.649361 16.7554 0 15.1336 0C13.9214 0 12.8113 0.38324 11.834 1.13898C11.3408 1.52046 10.894 1.98717 10.5 2.53191C10.1062 1.98734 9.65918 1.52046 9.16587 1.13898C8.18871 0.38324 7.07856 0 5.86636 0C4.24464 0 2.75285 0.649361 1.66578 1.8284C0.591682 2.99366 0 4.58558 0 6.31112C0 8.08713 0.661858 9.71285 2.08282 11.4275C3.35399 12.9613 5.18095 14.5182 7.29662 16.3212C8.01904 16.9369 8.83791 17.6348 9.68818 18.3782C9.9128 18.575 10.201 18.6833 10.5 18.6833C10.7988 18.6833 11.0872 18.575 11.3115 18.3785C12.1618 17.635 12.9811 16.9367 13.7039 16.3207C15.8192 14.5181 17.6462 12.9613 18.9173 11.4273C20.3383 9.71285 21 8.08713 21 6.31096C21 4.58558 20.4083 2.99366 19.3341 1.8284Z"/>
        </svg>
    </symbol>
    <symbol>
        <svg id="left_slide" width="13" height="12" viewBox="0 0 13 12" xmlns="http://www.w3.org/2000/svg">
            <path d="M12.7775 6.75H3.15546L7.80271 10.9512L6.64171 12L0 6L6.64171 9.53674e-07L7.80271 1.04883L3.15546 5.25H12.7775V6.75Z"/>
        </svg>
    </symbol>
    <symbol>
        <svg id="right_slide" width="13" height="12" viewBox="0 0 13 12" xmlns="http://www.w3.org/2000/svg">
            <path d="M0.222488 6.75H9.84454L5.19729 10.9512L6.35829 12L13 6L6.35829 9.53674e-07L5.19729 1.04883L9.84454 5.25H0.222488V6.75Z"/>
        </svg>
    </symbol>
    <symbol>
        <svg id="know_arrow" width="13" height="14" viewBox="0 0 13 14" xmlns="http://www.w3.org/2000/svg">
            <path d="M7.13867 0.611161L7.13867 10.2332L11.3398 5.58596L12.3887 6.74696L6.38867 13.3887L0.388673 6.74696L1.4375 5.58596L5.63867 10.2332L5.63867 0.611161L7.13867 0.611161Z"/>
        </svg>
    </symbol>
    <symbol>
        <svg id="footer_logo" width="265" height="68" viewBox="0 0 265 68" fill="none" xmlns="http://www.w3.org/2000/svg">
            <path d="M40.5659 24.9077V28.7955H31.0591V42.3821H25.5479V28.7955H16.041V24.9077H40.5659V24.9077Z" fill="#B7B7B7"/>
            <path d="M60.9403 24.9077C62.1383 24.9077 63.2287 25.1919 64.2127 25.7589C65.1955 26.3274 65.9808 27.0875 66.566 28.0409C67.1512 28.9942 67.4438 30.0524 67.4438 31.2126C67.4438 32.3743 67.1512 33.4338 66.566 34.3913C65.9808 35.3488 65.1955 36.1103 64.2127 36.6732C63.2287 37.2361 62.1383 37.5175 60.9403 37.5175H48.6702V42.3807H43.1729V24.9077H43.4144H48.6702H60.9403ZM59.4372 33.6435C60.126 33.6435 60.7153 33.4049 61.2067 32.9289C61.698 32.4529 61.9437 31.8804 61.9437 31.2126C61.9437 30.5449 61.698 29.9737 61.2067 29.4964C60.7153 29.0204 60.1246 28.7817 59.4372 28.7817H48.6688V33.6449H59.4372V33.6435Z" fill="#B7B7B7"/>
            <path d="M84.2851 24.9077L93.9535 42.3807H87.8391L85.9483 38.7399H74.6043L72.7134 42.3807H66.5991L76.2675 24.9077H84.2851ZM84.1098 35.1915L80.2742 27.7553L76.4262 35.1915H84.1098Z" fill="#B7B7B7"/>
            <path d="M107.186 38.9359C107.579 38.9359 108.109 38.9166 108.774 38.8779C109.439 38.8393 110.135 38.7179 110.86 38.5137C111.584 38.3109 112.245 37.9743 112.844 37.5066C113.443 37.0389 113.881 36.3849 114.158 35.5434H119.777C119.446 37.9274 118.24 39.7319 116.157 40.9584C114.074 42.1849 111.083 42.7975 107.186 42.7975C102.921 42.7975 99.7407 42.0607 97.6441 40.5873C95.5476 39.1138 94.5 36.9561 94.5 34.1127V33.1511C94.5 30.3077 95.5476 28.1499 97.6441 26.6765C99.7407 25.203 102.921 24.4663 107.186 24.4663C111.083 24.4663 114.073 25.0802 116.157 26.3054C118.24 27.5318 119.446 29.3323 119.777 31.708H114.158C113.881 30.8761 113.443 30.2263 112.844 29.7572C112.245 29.2895 111.584 28.9529 110.86 28.7501C110.135 28.5459 109.441 28.4245 108.774 28.3858C108.107 28.3472 107.579 28.3279 107.186 28.3279C106.828 28.3279 106.352 28.3431 105.757 28.3734C105.162 28.4038 104.534 28.4976 103.873 28.6535C103.212 28.8094 102.585 29.0646 101.996 29.4206C101.407 29.7765 100.921 30.2718 100.541 30.9092C100.162 31.5466 99.9711 32.3716 99.9711 33.3856V33.8671C99.9711 34.8811 100.162 35.7062 100.541 36.3435C100.921 36.9809 101.407 37.479 101.996 37.8391C102.585 38.1991 103.212 38.4571 103.873 38.613C104.534 38.7689 105.162 38.8628 105.757 38.8931C106.352 38.9207 106.828 38.9359 107.186 38.9359Z" fill="#B7B7B7"/>
            <path d="M146.214 24.9077V28.7955H136.707V42.3821H131.196V28.7955H121.689V24.9077H146.214V24.9077Z" fill="#B7B7B7"/>
            <path d="M158.31 24.5767H157.552V42.3352H158.31V24.5767Z" fill="#B7B7B7"/>
            <path d="M169.435 27.8979C169.435 26.9584 169.668 26.2313 170.134 25.7181C170.601 25.2049 171.233 24.9482 172.029 24.9482C172.675 24.9482 173.219 25.1207 173.661 25.4642C174.102 25.8091 174.366 26.3003 174.452 26.939L173.548 27.0246C173.476 26.5872 173.302 26.2548 173.026 26.0299C172.75 25.8036 172.417 25.6905 172.029 25.6905C171.527 25.6905 171.125 25.8864 170.823 26.2768C170.522 26.6673 170.37 27.2081 170.37 27.8965C170.37 28.5849 170.522 29.1258 170.829 29.5162C171.134 29.9066 171.541 30.1025 172.05 30.1025C172.452 30.1025 172.791 29.9825 173.067 29.7425C173.343 29.5024 173.521 29.1603 173.6 28.7146L174.504 28.7905C174.418 29.4431 174.152 29.9494 173.708 30.3081C173.263 30.6668 172.71 30.8462 172.05 30.8462C171.239 30.8462 170.601 30.5923 170.134 30.0818C169.668 29.5728 169.435 28.8443 169.435 27.8979Z" fill="#B7B7B7"/>
            <path d="M176.044 25.0776H180.006V30.7162H179.059V25.8516H176.884C176.861 26.1606 176.834 26.5869 176.798 27.1319C176.769 27.6631 176.745 28.0466 176.728 28.2839C176.71 28.5212 176.679 28.8151 176.636 29.1669C176.594 29.5187 176.543 29.7656 176.486 29.9091C176.428 30.0526 176.349 30.2085 176.249 30.3768C176.148 30.5451 176.026 30.6569 175.883 30.7107C175.739 30.7645 175.567 30.7907 175.367 30.7907C175.259 30.7907 175.104 30.7769 174.904 30.7479V29.9946C174.976 30.0015 175.062 30.0057 175.162 30.0057C175.32 30.0057 175.445 29.9381 175.539 29.8015C175.632 29.6649 175.709 29.3945 175.771 28.9889C175.832 28.5833 175.873 28.226 175.895 27.9183C175.917 27.6093 175.945 27.0753 175.981 26.3152C176.008 25.784 176.029 25.3715 176.044 25.0776Z" fill="#B7B7B7"/>
            <path d="M185.346 25.0776H186.357L184.258 31.3618C184.065 31.9854 183.834 32.4145 183.569 32.6477C183.304 32.8808 182.901 32.9981 182.363 32.9981C182.183 32.9981 181.975 32.9871 181.739 32.9664V32.2352C181.997 32.249 182.188 32.2572 182.309 32.2572C182.603 32.2572 182.825 32.1855 182.977 32.042C183.128 31.8985 183.268 31.6254 183.397 31.2239L183.558 30.7176H183.031L180.9 25.079H181.934L183.786 30.3409L185.346 25.0776Z" fill="#B7B7B7"/>
            <path d="M195.078 30.7161H193.916L192.021 28.23H191.321V30.7161H190.395V28.23H189.695L187.8 30.7161H186.638L188.984 27.7885L186.723 25.0762H187.843L189.662 27.4864H190.393V25.0776H191.319V27.4878H192.051L193.87 25.0776H194.989L192.729 27.7899L195.078 30.7161Z" fill="#B7B7B7"/>
            <path d="M198.35 25.2501C199.096 25.2501 199.7 25.5012 200.158 26.0034C200.617 26.5056 200.847 27.1871 200.847 28.048C200.847 28.9158 200.608 29.6001 200.13 30.0982C199.653 30.5976 199.005 30.8459 198.187 30.8459C196.406 30.8459 195.518 29.6512 195.518 27.263C195.518 26.0076 195.693 25.0501 196.045 24.3893C196.397 23.7298 196.971 23.3173 197.767 23.1517C197.918 23.1159 198.074 23.0855 198.235 23.0607C198.397 23.0358 198.569 23.0124 198.751 22.9903C198.934 22.9682 199.073 22.9503 199.165 22.9365C199.639 22.8648 200.012 22.7751 200.285 22.6675V23.4097C200.092 23.5311 199.758 23.6291 199.284 23.7008C199.177 23.716 199.011 23.7367 198.789 23.7657C198.566 23.7946 198.38 23.8195 198.228 23.8415C197.934 23.8774 197.685 23.9436 197.48 24.0402C197.276 24.1368 197.076 24.2913 196.883 24.5024C196.689 24.7135 196.535 25.0211 196.42 25.4226C196.306 25.8241 196.23 26.3235 196.194 26.9181C196.344 26.3952 196.605 25.9855 196.975 25.6916C197.348 25.3978 197.805 25.2501 198.35 25.2501ZM198.188 30.1037C198.72 30.1037 199.139 29.9188 199.448 29.5491C199.758 29.1793 199.911 28.6799 199.911 28.048C199.911 27.4162 199.756 26.9167 199.448 26.547C199.139 26.1773 198.72 25.9924 198.188 25.9924C197.65 25.9924 197.226 26.1773 196.918 26.547C196.609 26.9167 196.456 27.4175 196.456 28.048C196.456 28.6799 196.611 29.1793 196.918 29.5491C197.228 29.9188 197.651 30.1037 198.188 30.1037Z" fill="#B7B7B7"/>
            <path d="M201.602 29.2426C201.602 28.2314 202.341 27.6533 203.82 27.5098L205.499 27.3484V26.8103C205.499 26.4585 205.386 26.1743 205.16 25.955C204.933 25.7356 204.602 25.6308 204.165 25.6377C203.763 25.6377 203.433 25.7287 203.174 25.9122C202.916 26.0957 202.775 26.3702 202.754 26.7358H201.882C201.904 26.126 202.122 25.6763 202.539 25.3852C202.954 25.0941 203.497 24.9492 204.165 24.9492C204.904 24.9492 205.468 25.1244 205.855 25.4762C206.243 25.828 206.436 26.333 206.436 26.9938V30.7175H205.575V29.5558C205.396 29.9642 205.122 30.2815 204.757 30.5077C204.391 30.734 203.945 30.8471 203.422 30.8471C202.819 30.8471 202.365 30.6981 202.06 30.4001C201.753 30.1021 201.602 29.7158 201.602 29.2426ZM202.539 29.2095C202.539 29.4896 202.635 29.7186 202.83 29.898C203.025 30.0773 203.314 30.167 203.702 30.167C204.254 30.167 204.693 29.9931 205.016 29.6455C205.339 29.2978 205.501 28.8481 205.501 28.2948V27.9499L203.929 28.1113C203.001 28.1982 202.539 28.5639 202.539 29.2095Z" fill="#B7B7B7"/>
            <path d="M169.757 41.7533V36.1147H170.704V38.4932H173.622V36.1147H174.559V41.7533H173.622V39.2672H170.704V41.7533H169.757Z" fill="#B7B7B7"/>
            <path d="M175.667 38.9346C175.667 37.973 175.909 37.2418 176.393 36.7396C176.878 36.2374 177.522 35.9863 178.326 35.9863C179.151 35.9863 179.78 36.2416 180.215 36.7506C180.649 37.2597 180.867 38.0351 180.867 39.0753V39.205H176.614C176.65 39.8507 176.828 40.3446 177.147 40.6853C177.466 41.0261 177.884 41.1972 178.402 41.1972C179.133 41.1972 179.633 40.8744 179.898 40.2287L180.791 40.2825C180.64 40.7847 180.36 41.1779 179.952 41.4607C179.543 41.7435 179.026 41.8856 178.402 41.8856C177.562 41.8856 176.896 41.6359 176.405 41.1379C175.913 40.6371 175.667 39.9031 175.667 38.9346ZM176.625 38.5786H179.931C179.924 37.9909 179.775 37.526 179.484 37.1852C179.193 36.8445 178.807 36.6734 178.327 36.6734C177.854 36.6734 177.462 36.8362 177.154 37.1631C176.845 37.4901 176.668 37.962 176.625 38.5786Z" fill="#B7B7B7"/>
            <path d="M186.336 40.9794H186.993V43.271H186.1V41.7534H182.236V43.271H181.343V40.9794H181.762C181.848 40.7932 181.922 40.5683 181.983 40.3061C182.044 40.044 182.098 39.637 182.145 39.0852C182.192 38.5333 182.223 38.1263 182.241 37.8642C182.259 37.6021 182.294 37.0199 182.343 36.1162H186.338V40.9794H186.336ZM185.388 40.9794V36.8902H183.159C183.029 38.7334 182.926 39.8785 182.847 40.3227C182.796 40.5807 182.74 40.8001 182.675 40.9794H185.388Z" fill="#B7B7B7"/>
            <path d="M190.932 38.8478C192.038 38.9485 192.59 39.4079 192.59 40.2247C192.59 40.6689 192.429 41.0359 192.106 41.3228C191.783 41.6098 191.266 41.7533 190.556 41.7533H187.896V36.1147H190.426C191.079 36.1147 191.574 36.2444 191.911 36.5024C192.248 36.7604 192.418 37.1053 192.418 37.5358C192.419 38.267 191.923 38.7043 190.932 38.8478ZM188.844 36.8253V38.5691H190.351C190.731 38.5691 191.014 38.4905 191.196 38.3318C191.38 38.1745 191.471 37.9621 191.471 37.6972C191.471 37.1164 191.08 36.8253 190.298 36.8253H188.844V36.8253ZM190.448 41.0442C191.244 41.0442 191.643 40.7324 191.643 40.1074C191.643 39.4976 191.226 39.1927 190.394 39.1927H188.844V41.0442H190.448Z" fill="#B7B7B7"/>
            <path d="M197.253 36.1147H198.663V41.7533H197.759V36.7921L195.133 41.7533H193.711V36.1147H194.626V41.0759L197.253 36.1147Z" fill="#B7B7B7"/>
            <path d="M207.911 41.7532H206.749L204.854 39.2671H204.154V41.7532H203.228V39.2671H202.528L200.633 41.7532H199.471L201.817 38.8256L199.556 36.1133H200.676L202.495 38.5235H203.226V36.1147H204.152V38.5249H204.884L206.703 36.1147H207.822L205.562 38.827L207.911 41.7532Z" fill="#B7B7B7"/>
            <path d="M212.26 36.1147H213.67V41.7533H212.766V36.7921L210.14 41.7533H208.718V36.1147H209.633V41.0759L212.26 36.1147Z" fill="#B7B7B7"/>
            <path d="M220.28 36.1147H221.852V41.7533H220.937V36.7715L219.064 41.7533H217.88L216.018 36.7715V41.7533H215.103V36.1147H216.686L218.485 41.2373L220.28 36.1147Z" fill="#B7B7B7"/>
            <path d="M223.688 41.0923C223.203 40.5653 222.96 39.8452 222.96 38.9346C222.96 38.024 223.203 37.3039 223.688 36.7769C224.172 36.2498 224.82 35.9863 225.631 35.9863C226.443 35.9863 227.089 36.2498 227.569 36.7769C228.049 37.3039 228.291 38.024 228.291 38.9346C228.291 39.8452 228.051 40.5653 227.569 41.0923C227.089 41.6194 226.443 41.8829 225.631 41.8829C224.82 41.8829 224.172 41.6194 223.688 41.0923ZM224.365 37.3315C224.054 37.7329 223.898 38.2682 223.898 38.9346C223.898 39.6023 224.054 40.1363 224.365 40.5377C224.677 40.9392 225.1 41.1406 225.631 41.1406C226.154 41.1406 226.574 40.9392 226.886 40.5377C227.198 40.1363 227.354 39.601 227.354 38.9346C227.354 38.2669 227.198 37.7329 226.886 37.3315C226.574 36.93 226.156 36.7286 225.631 36.7286C225.1 36.7286 224.677 36.9286 224.365 37.3315Z" fill="#B7B7B7"/>
            <path d="M229.075 38.9345C229.075 37.995 229.308 37.2679 229.774 36.7547C230.241 36.2415 230.873 35.9849 231.67 35.9849C232.315 35.9849 232.859 36.1573 233.301 36.5008C233.743 36.8458 234.006 37.3369 234.092 37.9757L233.188 38.0612C233.116 37.6239 232.942 37.2914 232.666 37.0665C232.39 36.8402 232.057 36.7271 231.67 36.7271C231.167 36.7271 230.765 36.923 230.463 37.3134C230.162 37.7039 230.01 38.2447 230.01 38.9331C230.01 39.6216 230.162 40.1624 230.469 40.5528C230.774 40.9433 231.181 41.1392 231.69 41.1392C232.092 41.1392 232.431 41.0191 232.707 40.7791C232.983 40.539 233.162 40.1969 233.24 39.7513L234.144 39.8271C234.059 40.4797 233.792 40.986 233.348 41.3447C232.903 41.7034 232.35 41.8828 231.69 41.8828C230.879 41.8828 230.241 41.6289 229.774 41.1185C229.308 40.6094 229.075 39.8809 229.075 38.9345Z" fill="#B7B7B7"/>
            <path d="M234.587 36.8901V36.1147H239.346V36.8901H237.44V41.7547H236.493V36.8901H234.587Z" fill="#B7B7B7"/>
            <path d="M243.824 36.1147H245.234V41.7533H244.33V36.7921L241.704 41.7533H240.282V36.1147H241.197V41.0759L243.824 36.1147Z" fill="#B7B7B7"/>
        </svg>
    </symbol>
    <symbol>
        <svg id="vk" width="26" height="26" viewBox="0 0 26 26" xmlns="http://www.w3.org/2000/svg">
            <g clip-path="url(#clip0_274_52)">
                <path d="M25.8622 18.9798C25.8307 18.912 25.8013 18.8557 25.7741 18.8106C25.323 17.9982 24.4609 17.001 23.1885 15.8187L23.1616 15.7916L23.1481 15.7783L23.1345 15.7647H23.1209C22.5434 15.2142 22.1777 14.844 22.0245 14.6545C21.7443 14.2935 21.6815 13.9281 21.8347 13.5578C21.9429 13.2781 22.3493 12.6873 23.053 11.7847C23.4232 11.3063 23.7163 10.9229 23.9328 10.6341C25.4942 8.55827 26.1712 7.23181 25.9635 6.65416L25.8828 6.51917C25.8286 6.4379 25.6888 6.36356 25.4634 6.29576C25.2375 6.22809 24.9488 6.21691 24.5968 6.262L20.6982 6.28893C20.635 6.26655 20.5448 6.26863 20.4274 6.29576C20.31 6.32288 20.2513 6.33648 20.2513 6.33648L20.1835 6.37039L20.1296 6.41111C20.0845 6.43805 20.0348 6.48541 19.9806 6.55312C19.9267 6.62059 19.8816 6.69977 19.8456 6.79C19.4211 7.882 18.9385 8.89728 18.3969 9.8358C18.063 10.3954 17.7563 10.8804 17.4762 11.2911C17.1965 11.7016 16.9619 12.0041 16.7725 12.1979C16.5829 12.392 16.4117 12.5475 16.258 12.6649C16.1045 12.7824 15.9873 12.8321 15.9062 12.8139C15.8249 12.7957 15.7483 12.7777 15.6758 12.7597C15.5496 12.6784 15.448 12.5679 15.3714 12.428C15.2945 12.2882 15.2427 12.1121 15.2157 11.9C15.1887 11.6878 15.1728 11.5053 15.1683 11.3518C15.164 11.1985 15.166 10.9817 15.1751 10.7019C15.1845 10.422 15.1887 10.2327 15.1887 10.1334C15.1887 9.79038 15.1954 9.41813 15.2088 9.01653C15.2225 8.61493 15.2335 8.29673 15.2428 8.06232C15.252 7.82766 15.2563 7.5794 15.2563 7.31768C15.2563 7.05595 15.2403 6.85069 15.2088 6.70172C15.1777 6.55293 15.13 6.40851 15.0671 6.26849C15.0038 6.12862 14.9111 6.02042 14.7896 5.94361C14.6677 5.86689 14.5163 5.80601 14.3361 5.76078C13.8577 5.65253 13.2486 5.59398 12.5084 5.58487C10.8299 5.56686 9.75136 5.67524 9.27305 5.9099C9.08353 6.00904 8.91204 6.1445 8.7587 6.31586C8.59621 6.51448 8.57355 6.62287 8.69085 6.64069C9.23241 6.72182 9.61581 6.91589 9.84145 7.2227L9.92277 7.38529C9.98602 7.50259 10.0492 7.71027 10.1124 8.00803C10.1755 8.30579 10.2162 8.63518 10.2341 8.996C10.2792 9.65491 10.2792 10.219 10.2341 10.6882C10.1889 11.1576 10.1463 11.523 10.1055 11.7847C10.0648 12.0464 10.0039 12.2585 9.92277 12.4209C9.84145 12.5834 9.78735 12.6826 9.76023 12.7187C9.73316 12.7547 9.71059 12.7774 9.69266 12.7863C9.57536 12.8313 9.45336 12.8542 9.3271 12.8542C9.20065 12.8542 9.04731 12.7909 8.86685 12.6645C8.68644 12.5381 8.4992 12.3645 8.30513 12.1434C8.11107 11.9222 7.8922 11.6131 7.64845 11.216C7.40488 10.819 7.15216 10.3497 6.89043 9.80825L6.67389 9.41557C6.53852 9.16294 6.35361 8.7951 6.11895 8.31238C5.88416 7.82946 5.67663 7.36234 5.49622 6.9111C5.4241 6.72158 5.31576 6.5773 5.17138 6.47802L5.10363 6.43729C5.05858 6.40125 4.98628 6.36299 4.88708 6.32221C4.78775 6.28148 4.6841 6.25228 4.57572 6.23431L0.866543 6.26124C0.487514 6.26124 0.230339 6.3471 0.0949234 6.5186L0.0407289 6.59973C0.0136553 6.64491 0 6.71708 0 6.81641C0 6.9157 0.0270736 7.03755 0.0812681 7.18183C0.622739 8.45443 1.21158 9.68175 1.84778 10.864C2.48399 12.0462 3.03684 12.9985 3.506 13.7201C3.97526 14.4421 4.45358 15.1236 4.94095 15.7642C5.42832 16.405 5.75093 16.8157 5.90877 16.9961C6.0668 17.1768 6.19093 17.3119 6.28116 17.4022L6.61965 17.727C6.83624 17.9436 7.15429 18.2031 7.57396 18.5054C7.99372 18.8078 8.45842 19.1056 8.96832 19.3991C9.4783 19.6922 10.0716 19.9313 10.7485 20.1163C11.4254 20.3015 12.0841 20.3758 12.7249 20.3399H14.2818C14.5975 20.3127 14.8367 20.2134 14.9993 20.042L15.0531 19.9742C15.0894 19.9203 15.1233 19.8366 15.1546 19.724C15.1862 19.6112 15.202 19.4869 15.202 19.3518C15.1927 18.9638 15.2223 18.6141 15.2898 18.3028C15.3572 17.9915 15.4342 17.7569 15.5202 17.5988C15.6061 17.441 15.7031 17.3077 15.8111 17.1997C15.9193 17.0915 15.9964 17.0259 16.0416 17.0033C16.0866 16.9806 16.1225 16.9652 16.1495 16.956C16.3661 16.8838 16.621 16.9537 16.9146 17.166C17.208 17.378 17.4831 17.6399 17.7405 17.9511C17.9977 18.2626 18.3067 18.6121 18.6677 19.0001C19.0288 19.3883 19.3446 19.6768 19.6152 19.8666L19.8859 20.029C20.0666 20.1374 20.3013 20.2367 20.5901 20.3269C20.8785 20.4171 21.1311 20.4397 21.348 20.3946L24.8134 20.3405C25.1561 20.3405 25.4228 20.2838 25.612 20.1712C25.8016 20.0584 25.9142 19.9341 25.9505 19.7989C25.9867 19.6636 25.9887 19.5101 25.9574 19.3384C25.9253 19.1672 25.8937 19.0475 25.8622 18.9798Z"/>
            </g>
            <defs>
                <clipPath id="clip0_274_52">
                    <rect width="26" height="26" fill="white"/>
                </clipPath>
            </defs>
        </svg>
    </symbol>
    <symbol>
        <svg id="mobile-logo" width="119" height="18" viewBox="0 0 119 18" fill="none" xmlns="http://www.w3.org/2000/svg">
            <path d="M22.5708 0.59375V4.24365H13.916V17H8.89893V4.24365H0.244141V0.59375H22.5708ZM41.9116 0.59375C43.0021 0.59375 43.995 0.862305 44.8901 1.39941C45.7853 1.92839 46.4974 2.64046 47.0264 3.53564C47.5635 4.43083 47.832 5.42367 47.832 6.51416C47.832 7.60465 47.5635 8.60156 47.0264 9.50488C46.4974 10.4001 45.7853 11.1121 44.8901 11.6411C43.995 12.1701 43.0021 12.4346 41.9116 12.4346H30.7422V17H25.7373V0.59375H25.957H30.7422H41.9116ZM40.5444 8.79688C41.1711 8.79688 41.7082 8.57308 42.1558 8.12549C42.6034 7.6779 42.8271 7.14079 42.8271 6.51416C42.8271 5.88753 42.6034 5.35042 42.1558 4.90283C41.7082 4.45524 41.1711 4.23145 40.5444 4.23145H30.7422V8.79688H40.5444ZM62.1558 0.59375L70.957 17H65.3906L63.6694 13.582H53.3423L51.6211 17H46.0547L54.856 0.59375H62.1558ZM61.9971 10.2495L58.5059 3.26709L55.0024 10.2495H61.9971ZM82.6074 13.7651C82.9655 13.7651 83.4456 13.7489 84.0479 13.7163C84.6582 13.6756 85.293 13.5617 85.9521 13.3745C86.6113 13.1792 87.2135 12.8618 87.7588 12.4224C88.304 11.9829 88.7028 11.3685 88.9551 10.5791H94.0698C93.7687 12.8171 92.6701 14.5138 90.7739 15.6694C88.8778 16.8169 86.1556 17.3906 82.6074 17.3906C78.7256 17.3906 75.8285 16.6989 73.916 15.3154C72.0117 13.932 71.0596 11.9056 71.0596 9.23633V8.33301C71.0596 5.66374 72.0117 3.63737 73.916 2.25391C75.8285 0.870443 78.7256 0.178711 82.6074 0.178711C86.1556 0.178711 88.8778 0.75651 90.7739 1.91211C92.6701 3.05957 93.7687 4.74821 94.0698 6.97803H88.9551C88.7028 6.19678 88.304 5.58643 87.7588 5.14697C87.2135 4.70752 86.6113 4.39421 85.9521 4.20703C85.293 4.01172 84.6582 3.89779 84.0479 3.86523C83.4456 3.82454 82.9655 3.8042 82.6074 3.8042C82.2819 3.8042 81.8465 3.82048 81.3013 3.85303C80.7642 3.87744 80.1945 3.96289 79.5923 4.10938C78.9901 4.25586 78.4204 4.49593 77.8833 4.82959C77.3462 5.16325 76.9027 5.63118 76.5527 6.2334C76.2109 6.82747 76.04 7.60059 76.04 8.55273V9.00439C76.04 9.95654 76.2109 10.7337 76.5527 11.3359C76.9027 11.93 77.3462 12.3979 77.8833 12.7397C78.4204 13.0734 78.9901 13.3135 79.5923 13.46C80.1945 13.6064 80.7642 13.696 81.3013 13.7285C81.8465 13.7529 82.2819 13.7651 82.6074 13.7651ZM118.147 0.59375V4.24365H109.492V17H104.475V4.24365H95.8203V0.59375H118.147Z" fill="#D12B2B"/>
        </svg>
    </symbol>
</svg>