<svg viewBox="0 0 230 26" xmlns="http://www.w3.org/2000/svg" xmlns:xlink="http://www.w3.org/1999/xlink"><style>:root&gt;svg{display:none}:root&gt;svg:target{display:block}</style><svg fill="none" viewBox="0 0 13 13" id="arrow_right" xmlns="http://www.w3.org/2000/svg"><path d="M0 7.313h9.79l-4.729 4.55L6.243 13 13 6.5 6.243 0 5.06 1.136l4.73 4.551H0v1.625z" fill="#D92929"/></svg><svg fill="none" viewBox="0 0 14 14" id="down_arrow" xmlns="http://www.w3.org/2000/svg"><path d="M7 8.508l3.671-3.67a.584.584 0 01.825.824L7.413 9.746a.583.583 0 01-.825 0L2.504 5.662a.584.584 0 01.825-.824L7 8.508z" fill="#B7B7B7"/></svg><svg fill="none" viewBox="0 0 20 20" id="filter" xmlns="http://www.w3.org/2000/svg"><path d="M5 10.781H1.562a.313.313 0 01-.312-.312V9.53c0-.172.14-.312.313-.312H5v1.562zm5.625-6.25H1.562a.313.313 0 01-.312-.312V3.28c0-.172.14-.312.313-.312h9.062V4.53zm-1.25 4.688h9.063c.172 0 .312.14.312.312v.938c0 .172-.14.312-.313.312H9.376v1.406c0 .173-.14.313-.313.313h-2.5a.313.313 0 01-.312-.313V7.814c0-.173.14-.313.313-.313h2.5c.172 0 .312.14.312.313V9.22zM15 2.969h3.438c.172 0 .312.14.312.312v.938c0 .172-.14.312-.313.312H15v1.407c0 .172-.14.312-.313.312h-2.5a.313.313 0 01-.312-.313V1.563c0-.172.14-.312.313-.312h2.5c.172 0 .312.14.312.313V2.97zm-4.375 14.062H1.562a.313.313 0 01-.312-.312v-.938c0-.172.14-.312.313-.312h9.062v1.562zM15 15.469h3.438c.172 0 .312.14.312.312v.938c0 .172-.14.312-.313.312H15v1.407c0 .172-.14.312-.313.312h-2.5a.313.313 0 01-.312-.313v-4.375c0-.172.14-.312.313-.312h2.5c.172 0 .312.14.312.313v1.406z" fill="#DE2727"/></svg><svg fill="none" viewBox="0 0 230 22" id="footer_logo" xmlns="http://www.w3.org/2000/svg"><g clip-path="url(#dclip0_395_870)" fill="#B7B7B7"><path d="M24.566 2.908v3.888h-9.507v13.586H9.548V6.796H.04V2.908h24.525zm20.374 0c1.198 0 2.289.284 3.273.851a6.58 6.58 0 012.353 2.282c.585.953.878 2.012.878 3.172a5.977 5.977 0 01-.878 3.179 6.5 6.5 0 01-2.353 2.281c-.984.563-2.075.845-3.273.845H32.67v4.863h-5.497V2.908H44.94zm-1.503 8.736c.689 0 1.278-.239 1.77-.715.491-.476.737-1.048.737-1.716 0-.668-.246-1.24-.737-1.716a2.455 2.455 0 00-1.77-.715H32.67v4.863h10.768v-.001zm24.848-8.736l9.669 17.473h-6.115l-1.89-3.64H58.603l-1.89 3.64h-6.115l9.669-17.473h8.017zm-.175 10.284l-3.836-7.437-3.848 7.437h7.684zm23.076 3.744c.393 0 .923-.02 1.588-.058a9.789 9.789 0 002.086-.364 5.69 5.69 0 001.984-1.007c.6-.468 1.037-1.122 1.314-1.963h5.619c-.331 2.383-1.537 4.188-3.62 5.415-2.083 1.226-5.074 1.839-8.971 1.839-4.265 0-7.445-.737-9.542-2.21-2.096-1.474-3.144-3.632-3.144-6.475v-.962c0-2.843 1.048-5.001 3.144-6.474 2.097-1.474 5.277-2.21 9.541-2.21 3.898 0 6.888.613 8.972 1.838 2.083 1.227 3.289 3.027 3.62 5.403h-5.619c-.277-.832-.715-1.482-1.314-1.95A5.69 5.69 0 0094.86 6.75a9.777 9.777 0 00-2.086-.364 28.917 28.917 0 00-1.588-.058c-.358 0-.834.015-1.429.046-.595.03-1.223.124-1.884.28a6.496 6.496 0 00-1.877.767 4.228 4.228 0 00-1.455 1.488c-.38.638-.57 1.463-.57 2.477v.481c0 1.014.19 1.84.57 2.477.38.637.866 1.135 1.455 1.495a6.4 6.4 0 001.877.774c.661.156 1.29.25 1.884.28.595.028 1.071.043 1.428.043zm39.028-14.028v3.888h-9.507v13.586h-5.511V6.796h-9.507V2.908h24.525zm12.096-.331h-.758v17.758h.758V2.577zm11.124 3.321c0-.94.234-1.667.7-2.18.467-.514 1.099-.77 1.895-.77.646 0 1.19.172 1.632.516.441.345.705.836.79 1.475l-.904.085c-.071-.437-.245-.77-.521-.994a1.523 1.523 0 00-.997-.34 1.45 1.45 0 00-1.206.586c-.301.39-.453.932-.453 1.62 0 .689.152 1.23.458 1.62.305.39.713.586 1.222.586.401 0 .741-.12 1.017-.36.276-.24.454-.582.533-1.028l.904.076c-.086.653-.352 1.159-.797 1.518-.444.358-.997.538-1.657.538-.812 0-1.449-.254-1.916-.765-.466-.509-.7-1.237-.7-2.183zm6.61-2.82h3.961v5.638h-.947V3.852h-2.175c-.022.309-.049.735-.085 1.28-.029.531-.053.915-.071 1.152-.018.237-.048.531-.091.883s-.094.599-.15.742c-.058.144-.137.3-.238.468a.737.737 0 01-.365.334c-.144.053-.316.08-.517.08a3.46 3.46 0 01-.462-.043v-.753c.072.006.157.01.258.01a.436.436 0 00.377-.204c.092-.136.17-.407.232-.812.061-.406.102-.763.124-1.07.022-.31.05-.844.086-1.604l.063-1.237zm9.301 0h1.012l-2.099 6.284c-.194.623-.424 1.052-.689 1.286-.265.233-.668.35-1.206.35-.18 0-.388-.011-.624-.032v-.73c.258.013.448.021.57.021.294 0 .516-.072.668-.215.15-.144.291-.417.419-.818l.162-.507h-.527L164.9 3.08h1.033l1.853 5.262 1.559-5.263zm9.732 5.638h-1.162L176.02 6.23h-.7v2.486h-.926V6.23h-.7l-1.895 2.486h-1.162l2.347-2.927-2.261-2.713h1.119l1.819 2.41h.732V3.078h.926v2.41h.731l1.82-2.41h1.119l-2.261 2.712 2.349 2.926zm3.273-5.466c.746 0 1.35.251 1.808.753.459.502.689 1.184.689 2.045 0 .868-.239 1.552-.717 2.05-.477.5-1.125.748-1.943.748-1.781 0-2.669-1.195-2.669-3.583 0-1.256.175-2.213.527-2.874.352-.66.926-1.072 1.722-1.237.151-.036.307-.067.468-.091.162-.025.334-.049.516-.07.183-.023.322-.04.414-.055.474-.071.847-.161 1.12-.269v.743c-.193.121-.527.219-1.001.29-.107.016-.273.037-.495.066a39.52 39.52 0 00-.561.075 2.453 2.453 0 00-.748.2 1.964 1.964 0 00-.597.461c-.194.211-.348.519-.463.92-.114.402-.19.901-.226 1.496.15-.523.411-.933.781-1.227.373-.293.83-.441 1.375-.441zm-.162 4.854c.532 0 .951-.185 1.26-.555.31-.37.463-.87.463-1.501 0-.632-.155-1.131-.463-1.501-.309-.37-.728-.555-1.26-.555-.538 0-.962.185-1.27.555-.309.37-.462.87-.462 1.5 0 .633.155 1.132.462 1.502.31.37.733.555 1.27.555zm3.414-.861c0-1.012.739-1.59 2.218-1.733l1.679-.162V4.81c0-.351-.113-.636-.339-.855-.227-.22-.558-.324-.995-.317-.402 0-.732.09-.991.274-.258.184-.399.458-.42.824h-.872c.022-.61.24-1.06.657-1.35.415-.292.958-.437 1.626-.437.739 0 1.303.175 1.69.527.388.352.581.857.581 1.518v3.724h-.861V7.556a2.07 2.07 0 01-.818.952c-.366.226-.812.34-1.335.34-.603 0-1.057-.15-1.362-.448-.307-.298-.458-.684-.458-1.157zm.937-.033c0 .28.096.509.291.688.195.18.484.269.872.269.552 0 .991-.174 1.314-.521.323-.348.485-.798.485-1.351V5.95l-1.572.161c-.928.087-1.39.453-1.39 1.099zm-32.782 12.543v-5.638h.947v2.378h2.918v-2.378h.937v5.638h-.937v-2.486h-2.918v2.486h-.947zm5.91-2.818c0-.962.242-1.693.726-2.195.485-.503 1.129-.754 1.933-.754.825 0 1.454.256 1.889.765.433.509.651 1.284.651 2.324v.13h-4.252c.036.646.214 1.14.533 1.48.319.341.737.512 1.254.512.732 0 1.232-.323 1.497-.968l.893.053a2.131 2.131 0 01-.84 1.179c-.408.283-.926.425-1.55.425-.839 0-1.505-.25-1.997-.748-.491-.5-.737-1.235-.737-2.203zm.958-.356h3.306c-.007-.588-.156-1.053-.447-1.394-.292-.34-.677-.512-1.157-.512-.474 0-.865.163-1.173.49-.309.327-.486.799-.529 1.416zm9.711 2.401h.657v2.29h-.893v-1.517h-3.864v1.518h-.893v-2.292h.419c.086-.186.16-.411.221-.673.061-.262.115-.67.162-1.221.047-.552.078-.959.096-1.221.018-.262.053-.844.102-1.748h3.995v4.863h-.002zm-.948 0v-4.09h-2.229c-.13 1.843-.233 2.988-.312 3.433a4.572 4.572 0 01-.172.656h2.713zm5.544-2.132c1.106.1 1.658.56 1.658 1.377 0 .444-.161.81-.484 1.098-.323.287-.84.43-1.55.43h-2.66v-5.638h2.53c.653 0 1.148.13 1.485.387.337.258.507.603.507 1.034.001.73-.495 1.168-1.486 1.312zm-2.088-2.023v1.744h1.507c.38 0 .663-.079.845-.237a.793.793 0 00.275-.635c0-.58-.391-.872-1.173-.872h-1.454zm1.604 4.219c.796 0 1.195-.312 1.195-.937 0-.61-.417-.914-1.249-.914h-1.55v1.851h1.604zm6.804-4.929h1.411v5.638h-.904v-4.961l-2.627 4.961h-1.421v-5.638h.915v4.96l2.626-4.96zm10.658 5.638h-1.162l-1.895-2.486h-.699v2.486h-.927v-2.486h-.699l-1.895 2.486h-1.163l2.347-2.927-2.261-2.713h1.119l1.82 2.41h.731v-2.408h.926v2.41h.732l1.819-2.41h1.119l-2.261 2.712 2.349 2.926zm4.349-5.638h1.411v5.638h-.904v-4.961l-2.627 4.961h-1.421v-5.638h.915v4.96l2.626-4.96zm8.021 0h1.572v5.638h-.915v-4.982l-1.873 4.982h-1.184l-1.862-4.982v4.982h-.915v-5.638h1.583l1.798 5.122 1.796-5.122zm3.408 4.977c-.485-.527-.728-1.247-.728-2.157 0-.911.243-1.631.728-2.158.484-.527 1.131-.79 1.943-.79.811 0 1.457.263 1.938.79.48.527.722 1.247.722 2.158 0 .91-.241 1.63-.722 2.157-.481.527-1.127.79-1.938.79-.812 0-1.459-.263-1.943-.79zm.677-3.76c-.312.4-.468.936-.468 1.603 0 .667.156 1.201.468 1.603.312.401.735.603 1.266.603.523 0 .943-.202 1.255-.603.311-.402.467-.937.467-1.603 0-.668-.156-1.202-.467-1.603-.312-.402-.731-.603-1.255-.603-.531 0-.954.2-1.266.603zm4.709 1.603c0-.94.234-1.667.7-2.18.467-.514 1.099-.77 1.895-.77.646 0 1.19.172 1.632.516.441.345.705.836.791 1.475l-.905.085c-.071-.437-.245-.77-.521-.995a1.524 1.524 0 00-.997-.339 1.45 1.45 0 00-1.206.586c-.301.39-.453.932-.453 1.62 0 .689.152 1.23.458 1.62.306.39.713.586 1.222.586.402 0 .741-.12 1.017-.36.276-.24.454-.582.533-1.028l.904.076c-.086.653-.352 1.16-.796 1.518-.445.358-.998.538-1.658.538-.812 0-1.449-.254-1.916-.764-.466-.51-.7-1.238-.7-2.184zm5.513-2.045v-.775h4.759v.775h-1.906v4.864h-.947V14.89h-1.906zm9.236-.775h1.411v5.638h-.904v-4.961l-2.627 4.961h-1.421v-5.638h.915v4.96l2.626-4.96z"/></g><defs><clipPath id="dclip0_395_870"><path fill="#fff" d="M0 0h230v22H0z"/></clipPath></defs></svg><svg viewBox="0 0 13 14" id="know_arrow" xmlns="http://www.w3.org/2000/svg"><path d="M7.139.611v9.622l4.2-4.647 1.05 1.161-6 6.642-6-6.642 1.048-1.161 4.202 4.647V.611h1.5z"/></svg><svg viewBox="0 0 13 13" id="left_arrow" xmlns="http://www.w3.org/2000/svg"><path d="M13 7.313H3.21l4.729 4.55L6.757 13 0 6.5 6.757 0 7.94 1.136 3.21 5.687H13v1.625z"/></svg><svg fill="none" viewBox="0 0 13 12" id="left_slide" xmlns="http://www.w3.org/2000/svg"><path d="M12.777 6.75H3.155l4.648 4.201L6.642 12 0 6l6.642-6 1.16 1.049L3.156 5.25h9.622v1.5z" fill="#fff"/></svg><svg viewBox="0 0 21 19" id="like" xmlns="http://www.w3.org/2000/svg"><path d="M19.334 1.828A5.647 5.647 0 0015.134 0a5.283 5.283 0 00-3.3 1.139A6.75 6.75 0 0010.5 2.532a6.747 6.747 0 00-1.334-1.393A5.282 5.282 0 005.866 0a5.65 5.65 0 00-4.2 1.828C.592 2.994 0 4.586 0 6.311c0 1.776.662 3.402 2.083 5.117 1.271 1.533 3.098 3.09 5.214 4.893.722.616 1.54 1.314 2.391 2.057a1.231 1.231 0 001.623 0c.85-.743 1.67-1.441 2.393-2.057 2.115-1.803 3.942-3.36 5.213-4.894C20.338 9.713 21 8.087 21 6.311c0-1.725-.592-3.317-1.666-4.483z"/></svg><svg fill="none" viewBox="0 0 230 22" id="logo" xmlns="http://www.w3.org/2000/svg"><g clip-path="url(#iclip0_395_1125)" fill="#DC1919"><path d="M24.566 2.908v3.888h-9.507v13.586H9.548V6.796H.04V2.908h24.525zm20.374 0c1.198 0 2.289.284 3.273.851a6.58 6.58 0 012.353 2.282c.585.953.878 2.011.878 3.172a5.977 5.977 0 01-.878 3.178 6.5 6.5 0 01-2.353 2.282c-.984.563-2.075.845-3.273.845H32.67v4.863h-5.497V2.908H44.94zm-1.503 8.736c.689 0 1.278-.24 1.77-.715.491-.476.737-1.049.737-1.716 0-.668-.246-1.24-.737-1.717a2.455 2.455 0 00-1.77-.714H32.67v4.863h10.768v-.002zm24.848-8.736l9.669 17.473h-6.115l-1.89-3.641H58.603l-1.89 3.64h-6.115l9.669-17.472h8.017zm-.175 10.284l-3.836-7.437-3.848 7.436h7.684zm23.076 3.744c.393 0 .923-.02 1.588-.058a9.789 9.789 0 002.086-.364 5.69 5.69 0 001.984-1.007c.6-.468 1.037-1.122 1.314-1.964h5.619c-.331 2.384-1.537 4.189-3.62 5.415-2.083 1.227-5.074 1.84-8.971 1.84-4.265 0-7.445-.737-9.542-2.21-2.096-1.474-3.144-3.632-3.144-6.475v-.962c0-2.843 1.048-5.001 3.144-6.475 2.097-1.473 5.277-2.21 9.541-2.21 3.898 0 6.888.614 8.972 1.84 2.083 1.226 3.289 3.026 3.62 5.402h-5.619c-.277-.832-.715-1.482-1.314-1.95A5.69 5.69 0 0094.86 6.75a9.777 9.777 0 00-2.086-.364 28.917 28.917 0 00-1.588-.058c-.358 0-.834.015-1.429.045-.595.03-1.223.125-1.884.28a6.496 6.496 0 00-1.877.768 4.228 4.228 0 00-1.455 1.488c-.38.638-.57 1.463-.57 2.477v.481c0 1.014.19 1.84.57 2.476.38.638.866 1.136 1.455 1.496.59.36 1.216.618 1.877.774.661.156 1.29.25 1.884.28.595.028 1.071.043 1.428.043zm39.028-14.028v3.888h-9.507v13.586h-5.511V6.796h-9.507V2.908h24.525zm12.096-.331h-.758v17.758h.758V2.577zm11.124 3.321c0-.94.234-1.667.7-2.18.467-.513 1.099-.77 1.895-.77.646 0 1.19.173 1.632.516.441.345.705.836.79 1.475l-.904.086c-.071-.438-.245-.77-.521-.995a1.523 1.523 0 00-.997-.34c-.502 0-.904.196-1.206.587-.301.39-.453.931-.453 1.62 0 .688.152 1.229.458 1.62.305.39.713.586 1.222.586.401 0 .741-.12 1.017-.36.276-.24.454-.583.533-1.028l.904.076c-.086.652-.352 1.158-.797 1.517-.444.359-.997.538-1.657.538-.812 0-1.449-.254-1.916-.764-.466-.51-.7-1.238-.7-2.184zm6.61-2.82h3.961v5.638h-.947V3.852h-2.175c-.022.309-.049.735-.085 1.28-.029.531-.053.915-.071 1.152-.018.237-.048.531-.091.883s-.094.599-.15.742c-.058.144-.137.3-.238.468a.737.737 0 01-.365.334c-.144.053-.316.08-.517.08a3.46 3.46 0 01-.462-.043v-.753c.072.007.157.01.258.01a.436.436 0 00.377-.204c.092-.136.17-.407.232-.812.061-.406.102-.763.124-1.07.022-.31.05-.844.086-1.604l.063-1.237zm9.301 0h1.012l-2.099 6.284c-.194.623-.424 1.053-.689 1.286-.265.233-.668.35-1.206.35-.18 0-.388-.01-.624-.032v-.73c.258.013.448.021.57.021.294 0 .516-.072.668-.215.15-.143.291-.417.419-.818l.162-.506h-.527L164.9 3.079h1.033l1.853 5.262 1.559-5.263zm9.732 5.638h-1.162L176.02 6.23h-.7v2.486h-.926V6.23h-.7l-1.895 2.486h-1.162l2.347-2.927-2.261-2.713h1.119l1.819 2.41h.732V3.078h.926v2.41h.731l1.82-2.41h1.119l-2.261 2.712 2.349 2.926zm3.273-5.466c.746 0 1.35.251 1.808.753.459.503.689 1.184.689 2.045 0 .868-.239 1.552-.717 2.05-.477.5-1.125.748-1.943.748-1.781 0-2.669-1.195-2.669-3.583 0-1.255.175-2.213.527-2.874.352-.66.926-1.072 1.722-1.237.151-.036.307-.067.468-.091.162-.025.334-.049.516-.07.183-.023.322-.04.414-.054.474-.072.847-.162 1.12-.27v.743c-.193.121-.527.22-1.001.29-.107.016-.273.037-.495.066-.223.029-.409.053-.561.076a2.453 2.453 0 00-.748.198 1.964 1.964 0 00-.597.462c-.194.211-.348.52-.463.92-.114.402-.19.901-.226 1.496.15-.523.411-.933.781-1.226.373-.294.83-.442 1.375-.442zm-.162 4.854c.532 0 .951-.185 1.26-.555.31-.37.463-.87.463-1.501 0-.632-.155-1.131-.463-1.501-.309-.37-.728-.555-1.26-.555-.538 0-.962.185-1.27.555-.309.37-.462.87-.462 1.501 0 .632.155 1.131.462 1.501.31.37.733.555 1.27.555zm3.414-.861c0-1.012.739-1.59 2.218-1.733l1.679-.162V4.81c0-.351-.113-.636-.339-.855-.227-.22-.558-.324-.995-.317-.402 0-.732.09-.991.274-.258.184-.399.458-.42.824h-.872c.022-.61.24-1.06.657-1.35.415-.292.958-.437 1.626-.437.739 0 1.303.175 1.69.527.388.352.581.857.581 1.518v3.723h-.861V7.556a2.07 2.07 0 01-.818.952c-.366.226-.812.34-1.335.34-.603 0-1.057-.15-1.362-.448-.307-.298-.458-.684-.458-1.157zm.937-.033c0 .28.096.509.291.688.195.18.484.269.872.269.552 0 .991-.174 1.314-.522.323-.347.485-.797.485-1.35V5.95l-1.572.161c-.928.087-1.39.453-1.39 1.099zm-32.782 12.543v-5.638h.947v2.378h2.918v-2.378h.937v5.638h-.937v-2.486h-2.918v2.486h-.947zm5.91-2.818c0-.962.242-1.693.726-2.195.485-.503 1.129-.754 1.933-.754.825 0 1.454.256 1.889.765.433.509.651 1.284.651 2.324v.13h-4.252c.036.646.214 1.14.533 1.48.319.341.737.512 1.254.512.732 0 1.232-.323 1.497-.968l.893.053a2.131 2.131 0 01-.84 1.179c-.408.283-.926.425-1.55.425-.839 0-1.505-.25-1.997-.748-.491-.5-.737-1.235-.737-2.203zm.958-.356h3.306c-.007-.588-.156-1.053-.447-1.394-.292-.34-.677-.512-1.157-.512-.474 0-.865.163-1.173.49-.309.327-.486.799-.529 1.416zm9.711 2.401h.657v2.291h-.893v-1.518h-3.864v1.518h-.893v-2.292h.419a3.52 3.52 0 00.221-.673c.061-.262.115-.669.162-1.22.047-.553.078-.96.096-1.222.018-.262.053-.844.102-1.748h3.995v4.863h-.002zm-.948 0v-4.09h-2.229c-.13 1.843-.233 2.988-.312 3.433a4.565 4.565 0 01-.172.656h2.713zm5.544-2.132c1.106.1 1.658.56 1.658 1.377 0 .444-.161.81-.484 1.098-.323.287-.84.43-1.55.43h-2.66v-5.638h2.53c.653 0 1.148.13 1.485.387.337.258.507.603.507 1.034.001.731-.495 1.168-1.486 1.312zm-2.088-2.023v1.744h1.507c.38 0 .663-.078.845-.237a.793.793 0 00.275-.635c0-.58-.391-.872-1.173-.872h-1.454zm1.604 4.22c.796 0 1.195-.313 1.195-.938 0-.61-.417-.914-1.249-.914h-1.55v1.851h1.604zm6.804-4.93h1.411v5.638h-.904v-4.96l-2.627 4.96h-1.421v-5.638h.915v4.96l2.626-4.96zm10.658 5.638h-1.162l-1.895-2.486h-.699v2.486h-.927v-2.486h-.699l-1.895 2.486h-1.163l2.347-2.927-2.261-2.713h1.119l1.82 2.41h.731v-2.408h.926v2.41h.732l1.819-2.41h1.119l-2.261 2.712 2.349 2.926zm4.349-5.638h1.411v5.638h-.904v-4.96l-2.627 4.96h-1.421v-5.638h.915v4.96l2.626-4.96zm8.021 0h1.572v5.638h-.915v-4.982l-1.873 4.982h-1.184l-1.862-4.982v4.982h-.915v-5.638h1.583l1.798 5.122 1.796-5.122zm3.408 4.977c-.485-.527-.728-1.247-.728-2.157 0-.911.243-1.631.728-2.158.484-.527 1.131-.79 1.943-.79.811 0 1.457.263 1.938.79.48.527.722 1.247.722 2.158 0 .91-.241 1.63-.722 2.157-.481.527-1.127.79-1.938.79-.812 0-1.459-.263-1.943-.79zm.677-3.76c-.312.4-.468.936-.468 1.603 0 .667.156 1.201.468 1.603.312.401.735.603 1.266.603.523 0 .943-.202 1.255-.603.311-.402.467-.937.467-1.603 0-.668-.156-1.202-.467-1.603-.312-.402-.731-.603-1.255-.603-.531 0-.954.2-1.266.603zm4.709 1.602c0-.939.234-1.666.7-2.18.467-.512 1.099-.77 1.895-.77.646 0 1.19.173 1.632.517.441.345.705.836.791 1.475l-.905.085c-.071-.437-.245-.77-.521-.995a1.523 1.523 0 00-.997-.339 1.45 1.45 0 00-1.206.586c-.301.39-.453.932-.453 1.62 0 .689.152 1.23.458 1.62.306.39.713.586 1.222.586.402 0 .741-.12 1.017-.36.276-.24.454-.582.533-1.028l.904.076c-.086.653-.352 1.159-.796 1.518-.445.358-.998.538-1.658.538-.812 0-1.449-.254-1.916-.764-.466-.51-.7-1.238-.7-2.184zm5.513-2.044v-.775h4.759v.775h-1.906v4.865h-.947V14.89h-1.906zm9.236-.775h1.411v5.638h-.904v-4.96l-2.627 4.96h-1.421v-5.638h.915v4.96l2.626-4.96z"/></g><defs><clipPath id="iclip0_395_1125"><path fill="#fff" d="M0 0h230v22H0z"/></clipPath></defs></svg><svg fill="none" viewBox="0 0 14 12" id="right_arrow" xmlns="http://www.w3.org/2000/svg"><path d="M.398 6.75h9.6L5.36 10.951 6.52 12l6.626-6L6.52 0 5.362 1.049 9.997 5.25H.398v1.5z" fill="#fff"/></svg><svg fill="none" viewBox="0 0 13 12" id="right_slide" xmlns="http://www.w3.org/2000/svg"><path d="M.222 6.75h9.623l-4.648 4.201L6.358 12 13 6 6.358 0l-1.16 1.049L9.844 5.25H.222v1.5z" fill="#fff"/></svg><svg viewBox="0 0 18 17" id="star" xmlns="http://www.w3.org/2000/svg"><path d="M9 0l2.02 6.219h6.54l-5.29 3.843 2.02 6.22L9 12.437 3.71 16.28l2.02-6.219L.44 6.22h6.54L9 0z"/></svg><svg fill="none" viewBox="0 0 26 26" id="vk" xmlns="http://www.w3.org/2000/svg"><g clip-path="url(#mclip0_395_866)"><path d="M25.862 18.98a1.806 1.806 0 00-.088-.17c-.451-.812-1.313-1.809-2.585-2.991l-.027-.027-.014-.014-.014-.013h-.013c-.578-.55-.943-.921-1.096-1.11-.28-.361-.343-.727-.19-1.097.108-.28.514-.87 1.218-1.773.37-.479.663-.862.88-1.15 1.561-2.077 2.238-3.403 2.03-3.98l-.08-.136c-.054-.081-.194-.155-.42-.223-.226-.068-.514-.08-.866-.034l-3.899.027a.506.506 0 00-.27.007l-.177.04-.068.034-.053.041a.603.603 0 00-.15.142.928.928 0 00-.134.237 22.112 22.112 0 01-1.45 3.046c-.333.56-.64 1.044-.92 1.455-.28.41-.514.713-.703.907-.19.194-.361.35-.515.467-.153.117-.27.167-.352.149a10.25 10.25 0 01-.23-.054.901.901 0 01-.305-.332 1.483 1.483 0 01-.155-.528 5.778 5.778 0 01-.048-.548c-.004-.154-.002-.37.007-.65.01-.28.014-.47.014-.569a32 32 0 01.02-1.116c.014-.402.024-.72.034-.955.009-.234.013-.483.013-.744a3.17 3.17 0 00-.047-.616 2.108 2.108 0 00-.142-.434.73.73 0 00-.277-.324 1.566 1.566 0 00-.454-.183c-.478-.108-1.087-.167-1.828-.176-1.678-.018-2.757.09-3.235.325-.19.099-.361.234-.514.406-.163.198-.185.307-.068.325.541.08.925.275 1.15.582l.082.162c.063.118.126.325.19.623.063.298.103.627.121.988.045.659.045 1.223 0 1.692-.045.47-.088.835-.129 1.097a2.19 2.19 0 01-.182.636 2.688 2.688 0 01-.163.298.233.233 0 01-.067.067c-.118.045-.24.068-.366.068s-.28-.063-.46-.19c-.18-.126-.368-.3-.562-.52a6.966 6.966 0 01-.657-.928 16.177 16.177 0 01-.758-1.408l-.216-.392a33.79 33.79 0 01-.555-1.104c-.235-.483-.442-.95-.623-1.4a.892.892 0 00-.325-.434l-.067-.04a.926.926 0 00-.217-.116c-.1-.04-.203-.07-.311-.088l-3.71.027c-.378 0-.636.086-.771.258l-.054.08A.438.438 0 000 6.817c0 .1.027.222.081.366a44.68 44.68 0 001.767 3.682c.636 1.182 1.189 2.134 1.658 2.856.47.722.948 1.404 1.435 2.044.487.641.81 1.052.968 1.232.158.18.282.316.372.406l.339.325c.216.217.534.476.954.778.42.303.884.6 1.394.894.51.293 1.104.532 1.78.717.677.186 1.336.26 1.977.224h1.557c.316-.027.555-.127.717-.298l.054-.068a.896.896 0 00.102-.25c.031-.113.047-.237.047-.372-.01-.388.02-.738.088-1.05.067-.31.144-.545.23-.703a1.729 1.729 0 01.522-.596.884.884 0 01.107-.047c.217-.072.472-.002.766.21.293.212.568.474.826.785.257.312.566.661.927 1.05.36.387.677.676.947.866l.27.162c.182.108.416.208.705.298.288.09.541.113.758.068l3.465-.055c.343 0 .61-.056.799-.169.19-.113.302-.237.339-.372a1.04 1.04 0 00.006-.46 1.7 1.7 0 00-.095-.36z" fill="#7E7E7E"/></g><defs><clipPath id="mclip0_395_866"><path fill="#fff" d="M0 0h26v26H0z"/></clipPath></defs></svg></svg>