<svg width="20" height="20" viewBox="0 0 20 20" fill="none" xmlns="http://www.w3.org/2000/svg">
<path d="M5 10.7812H1.5625C1.39 10.7812 1.25 10.6413 1.25 10.4688V9.53125C1.25 9.35875 1.39 9.21875 1.5625 9.21875H5V10.7812Z" fill="#DE2727"/>
<path d="M10.625 4.53125H1.5625C1.39 4.53125 1.25 4.39125 1.25 4.21875V3.28125C1.25 3.10875 1.39 2.96875 1.5625 2.96875H10.625V4.53125Z" fill="#DE2727"/>
<path d="M9.375 9.21875H18.4375C18.61 9.21875 18.75 9.35875 18.75 9.53125V10.4688C18.75 10.6412 18.61 10.7812 18.4375 10.7812H9.375V12.1875C9.375 12.36 9.235 12.5 9.0625 12.5H6.5625C6.39 12.5 6.25 12.36 6.25 12.1875V7.8125C6.25 7.64 6.39 7.5 6.5625 7.5H9.0625C9.235 7.5 9.375 7.64 9.375 7.8125V9.21875Z" fill="#DE2727"/>
<path d="M15 2.96875H18.4375C18.61 2.96875 18.75 3.10875 18.75 3.28125V4.21875C18.75 4.39125 18.61 4.53125 18.4375 4.53125H15V5.9375C15 6.11 14.86 6.25 14.6875 6.25H12.1875C12.015 6.25 11.875 6.11 11.875 5.9375V1.5625C11.875 1.39 12.015 1.25 12.1875 1.25H14.6875C14.86 1.25 15 1.39 15 1.5625V2.96875Z" fill="#DE2727"/>
<path d="M10.625 17.0312H1.5625C1.39 17.0312 1.25 16.8913 1.25 16.7188V15.7812C1.25 15.6088 1.39 15.4688 1.5625 15.4688H10.625V17.0312Z" fill="#DE2727"/>
<path d="M15 15.4688H18.4375C18.61 15.4688 18.75 15.6087 18.75 15.7812V16.7188C18.75 16.8912 18.61 17.0312 18.4375 17.0312H15V18.4375C15 18.61 14.86 18.75 14.6875 18.75H12.1875C12.015 18.75 11.875 18.61 11.875 18.4375V14.0625C11.875 13.89 12.015 13.75 12.1875 13.75H14.6875C14.86 13.75 15 13.89 15 14.0625V15.4688Z" fill="#DE2727"/>
</svg>
