<svg width="230" height="22" viewBox="0 0 230 22" fill="none" xmlns="http://www.w3.org/2000/svg">
<g clip-path="url(#clip0_395_870)">
<path d="M24.5657 2.9079V6.7957H15.0588V20.3823H9.54765V6.7957H0.0407715V2.9079H24.5657Z" fill="#B7B7B7"/>
<path d="M44.9403 2.9079C46.1383 2.9079 47.2287 3.1921 48.2127 3.75913C49.1955 4.32754 49.9808 5.08771 50.566 6.04104C51.1512 6.99436 51.4438 8.05253 51.4438 9.2128C51.4438 10.3745 51.1512 11.434 50.566 12.3915C49.9808 13.3489 49.1955 14.1105 48.2127 14.6734C47.2287 15.2363 46.1383 15.5177 44.9403 15.5177H32.6702V20.3809H27.1729V2.9079H27.4144H32.6702H44.9403ZM43.4372 11.6437C44.126 11.6437 44.7153 11.405 45.2067 10.9291C45.698 10.4531 45.9437 9.88054 45.9437 9.2128C45.9437 8.54506 45.698 7.9739 45.2067 7.49654C44.7153 7.02057 44.1246 6.7819 43.4372 6.7819H32.6688V11.6451H43.4372V11.6437Z" fill="#B7B7B7"/>
<path d="M68.2851 2.9079L77.9535 20.3809H71.8391L69.9483 16.7401H58.6043L56.7134 20.3809H50.5991L60.2675 2.9079H68.2851ZM68.1098 13.1917L64.2742 5.75545L60.4262 13.1917H68.1098Z" fill="#B7B7B7"/>
<path d="M91.1855 16.936C91.5789 16.936 92.1089 16.9167 92.7741 16.878C93.4394 16.8394 94.135 16.718 94.8596 16.5138C95.5842 16.311 96.2453 15.9744 96.8444 15.5067C97.4434 15.039 97.8809 14.3851 98.1583 13.5435H103.777C103.446 15.9275 102.24 17.732 100.157 18.9585C98.0741 20.185 95.0832 20.7976 91.1855 20.7976C86.9207 20.7976 83.7407 20.0609 81.6441 18.5874C79.5476 17.114 78.5 14.9562 78.5 12.1128V11.1512C78.5 8.30778 79.5476 6.15004 81.6441 4.6766C83.7407 3.20316 86.9207 2.46643 91.1855 2.46643C95.0832 2.46643 98.0727 3.08037 100.157 4.30548C102.24 5.53197 103.446 7.33239 103.777 9.70811H98.1583C97.8809 8.87619 97.4434 8.22639 96.8444 7.75731C96.2453 7.28962 95.5842 6.95299 94.8596 6.75018C94.135 6.546 93.4408 6.42459 92.7741 6.38596C92.1075 6.34733 91.5789 6.32802 91.1855 6.32802C90.828 6.32802 90.3518 6.34319 89.757 6.37354C89.1621 6.4039 88.5341 6.49771 87.873 6.65361C87.2119 6.80951 86.5853 7.06474 85.9959 7.42068C85.4066 7.77663 84.9207 8.27191 84.5412 8.9093C84.1616 9.54669 83.9711 10.3717 83.9711 11.3857V11.8672C83.9711 12.8813 84.1616 13.7063 84.5412 14.3437C84.9207 14.9811 85.4066 15.4791 85.9959 15.8392C86.5853 16.1993 87.2119 16.4573 87.873 16.6132C88.5341 16.7691 89.1621 16.8629 89.757 16.8932C90.3518 16.9208 90.828 16.936 91.1855 16.936Z" fill="#B7B7B7"/>
<path d="M130.214 2.9079V6.7957H120.707V20.3823H115.196V6.7957H105.689V2.9079H130.214Z" fill="#B7B7B7"/>
<path d="M142.31 2.57678H141.552V20.3354H142.31V2.57678Z" fill="#B7B7B7"/>
<path d="M153.434 5.89753C153.434 4.958 153.668 4.23093 154.134 3.71771C154.601 3.20449 155.233 2.94788 156.029 2.94788C156.675 2.94788 157.219 3.12033 157.661 3.46386C158.102 3.80876 158.366 4.29991 158.451 4.93868L157.547 5.02422C157.476 4.58687 157.302 4.25438 157.026 4.02951C156.75 3.80325 156.417 3.69012 156.029 3.69012C155.527 3.69012 155.125 3.88602 154.823 4.27646C154.522 4.6669 154.37 5.20771 154.37 5.89614C154.37 6.58458 154.522 7.12539 154.828 7.51583C155.133 7.90626 155.541 8.10217 156.05 8.10217C156.451 8.10217 156.791 7.98215 157.067 7.74209C157.343 7.50203 157.521 7.15988 157.6 6.71426L158.504 6.79014C158.418 7.44271 158.152 7.94903 157.707 8.30773C157.263 8.66644 156.71 8.84579 156.05 8.84579C155.238 8.84579 154.601 8.59194 154.134 8.08147C153.668 7.57239 153.434 6.84395 153.434 5.89753Z" fill="#B7B7B7"/>
<path d="M160.044 3.07758H164.005V8.71612H163.058V3.85155H160.883C160.861 4.16058 160.834 4.58689 160.798 5.13184C160.769 5.663 160.745 6.04654 160.727 6.28383C160.709 6.52113 160.679 6.81499 160.636 7.1668C160.593 7.51861 160.542 7.76555 160.486 7.90903C160.428 8.05251 160.349 8.20841 160.248 8.37673C160.148 8.54504 160.026 8.6568 159.883 8.71061C159.739 8.76441 159.567 8.79062 159.366 8.79062C159.259 8.79062 159.104 8.77682 158.904 8.74785V7.99458C158.976 8.00148 159.061 8.00561 159.162 8.00561C159.319 8.00561 159.445 7.93801 159.539 7.80143C159.631 7.66484 159.709 7.39443 159.771 6.98882C159.832 6.58321 159.873 6.22589 159.895 5.91823C159.917 5.6092 159.945 5.07528 159.981 4.3151C160.008 3.78395 160.029 3.37144 160.044 3.07758Z" fill="#B7B7B7"/>
<path d="M169.345 3.07758H170.357L168.258 9.36179C168.064 9.98538 167.834 10.4144 167.569 10.6476C167.304 10.8808 166.901 10.998 166.363 10.998C166.183 10.998 165.975 10.987 165.739 10.9663V10.2351C165.997 10.2489 166.187 10.2572 166.309 10.2572C166.603 10.2572 166.825 10.1854 166.977 10.0419C167.127 9.89846 167.268 9.6253 167.396 9.22382L167.558 8.7175H167.031L164.9 3.07895H165.933L167.786 8.34086L169.345 3.07758Z" fill="#B7B7B7"/>
<path d="M179.077 8.7161H177.915L176.02 6.23H175.32V8.7161H174.394V6.23H173.694L171.799 8.7161H170.637L172.984 5.78852L170.723 3.07617H171.842L173.661 5.48638H174.393V3.07755H175.319V5.48777H176.05L177.87 3.07755H178.989L176.728 5.7899L179.077 8.7161Z" fill="#B7B7B7"/>
<path d="M182.35 3.25003C183.096 3.25003 183.7 3.50112 184.158 4.0033C184.617 4.50549 184.847 5.18702 184.847 6.04791C184.847 6.9157 184.608 7.6 184.13 8.09805C183.653 8.59747 183.005 8.8458 182.187 8.8458C180.406 8.8458 179.518 7.65104 179.518 5.2629C179.518 4.00744 179.693 3.04998 180.045 2.38913C180.397 1.72967 180.971 1.31716 181.767 1.15161C181.918 1.11574 182.074 1.08538 182.235 1.06055C182.397 1.03572 182.569 1.01227 182.751 0.990191C182.934 0.968117 183.073 0.95018 183.165 0.936384C183.639 0.864643 184.012 0.774969 184.285 0.667358V1.4096C184.092 1.531 183.758 1.62896 183.284 1.7007C183.177 1.71588 183.011 1.73657 182.789 1.76554C182.566 1.79451 182.38 1.81935 182.228 1.84142C181.934 1.87729 181.685 1.94351 181.48 2.04009C181.276 2.13666 181.076 2.29118 180.883 2.50226C180.689 2.71335 180.535 3.02101 180.42 3.42248C180.306 3.82395 180.23 4.32338 180.194 4.918C180.344 4.39512 180.605 3.98537 180.975 3.6915C181.348 3.39764 181.805 3.25003 182.35 3.25003ZM182.188 8.10356C182.72 8.10356 183.139 7.91869 183.448 7.54895C183.758 7.17921 183.911 6.67978 183.911 6.04791C183.911 5.41604 183.756 4.91662 183.448 4.54688C183.139 4.17714 182.72 3.99226 182.188 3.99226C181.65 3.99226 181.226 4.17714 180.918 4.54688C180.609 4.91662 180.456 5.41742 180.456 6.04791C180.456 6.67978 180.611 7.17921 180.918 7.54895C181.228 7.91869 181.651 8.10356 182.188 8.10356Z" fill="#B7B7B7"/>
<path d="M185.602 7.24269C185.602 6.23142 186.341 5.65335 187.82 5.50987L189.499 5.34846V4.8104C189.499 4.4586 189.386 4.17439 189.16 3.95503C188.933 3.73567 188.602 3.63082 188.165 3.63772C187.763 3.63772 187.433 3.72877 187.174 3.91226C186.916 4.09575 186.775 4.3703 186.754 4.7359H185.882C185.904 4.12611 186.122 3.67635 186.539 3.38524C186.954 3.09414 187.497 2.94928 188.165 2.94928C188.904 2.94928 189.468 3.12449 189.855 3.4763C190.243 3.8281 190.436 4.33305 190.436 4.99389V8.71751H189.575V7.55586C189.396 7.96423 189.122 8.28155 188.757 8.50781C188.391 8.73407 187.945 8.8472 187.422 8.8472C186.819 8.8472 186.365 8.6982 186.06 8.4002C185.753 8.1022 185.602 7.7159 185.602 7.24269ZM186.539 7.20958C186.539 7.48965 186.635 7.71866 186.83 7.89801C187.025 8.07737 187.314 8.16704 187.702 8.16704C188.254 8.16704 188.693 7.99321 189.016 7.64554C189.339 7.29787 189.501 6.84811 189.501 6.29488V5.94997L187.929 6.11139C187.001 6.19831 186.539 6.56391 186.539 7.20958Z" fill="#B7B7B7"/>
<path d="M153.757 19.7532V14.1146H154.704V16.4931H157.622V14.1146H158.559V19.7532H157.622V17.2671H154.704V19.7532H153.757Z" fill="#B7B7B7"/>
<path d="M159.667 16.9346C159.667 15.973 159.909 15.2418 160.393 14.7396C160.878 14.2374 161.522 13.9863 162.326 13.9863C163.151 13.9863 163.78 14.2416 164.215 14.7506C164.648 15.2597 164.866 16.0351 164.866 17.0753V17.205H160.614C160.65 17.8507 160.828 18.3446 161.147 18.6853C161.466 19.0261 161.884 19.1972 162.401 19.1972C163.133 19.1972 163.633 18.8744 163.898 18.2287L164.791 18.2825C164.64 18.7847 164.36 19.1779 163.951 19.4607C163.543 19.7435 163.025 19.8856 162.401 19.8856C161.562 19.8856 160.896 19.6359 160.404 19.1379C159.913 18.6371 159.667 17.9031 159.667 16.9346ZM160.625 16.5786H163.931C163.924 15.9909 163.775 15.526 163.484 15.1852C163.192 14.8445 162.807 14.6734 162.327 14.6734C161.853 14.6734 161.462 14.8362 161.154 15.1631C160.845 15.4901 160.668 15.962 160.625 16.5786Z" fill="#B7B7B7"/>
<path d="M170.336 18.9792H170.993V21.2707H170.1V19.7531H166.236V21.2707H165.343V18.9792H165.762C165.848 18.7929 165.922 18.568 165.983 18.3059C166.044 18.0438 166.098 17.6368 166.145 17.0849C166.192 16.5331 166.223 16.1261 166.241 15.864C166.259 15.6018 166.294 15.0196 166.343 14.116H170.338V18.9792H170.336ZM169.388 18.9792V14.8899H167.159C167.029 16.7331 166.926 17.8782 166.847 18.3225C166.796 18.5804 166.74 18.7998 166.675 18.9792H169.388Z" fill="#B7B7B7"/>
<path d="M174.932 16.8477C176.038 16.9484 176.59 17.4078 176.59 18.2245C176.59 18.6688 176.429 19.0358 176.106 19.3227C175.783 19.6097 175.266 19.7532 174.556 19.7532H171.896V14.1146H174.426C175.079 14.1146 175.574 14.2443 175.911 14.5023C176.248 14.7603 176.418 15.1052 176.418 15.5356C176.419 16.2668 175.923 16.7042 174.932 16.8477ZM172.844 14.8251V16.569H174.351C174.731 16.569 175.014 16.4903 175.196 16.3317C175.38 16.1744 175.471 15.9619 175.471 15.6971C175.471 15.1162 175.08 14.8251 174.298 14.8251H172.844ZM174.448 19.044C175.244 19.044 175.643 18.7322 175.643 18.1073C175.643 17.4975 175.226 17.1926 174.394 17.1926H172.844V19.044H174.448Z" fill="#B7B7B7"/>
<path d="M181.252 14.1146H182.663V19.7532H181.759V14.792L179.132 19.7532H177.711V14.1146H178.626V19.0758L181.252 14.1146Z" fill="#B7B7B7"/>
<path d="M191.91 19.7531H190.748L188.853 17.2671H188.154V19.7531H187.227V17.2671H186.528L184.633 19.7531H183.47L185.817 16.8256L183.556 14.1132H184.675L186.495 16.5234H187.226V14.1146H188.152V16.5248H188.884L190.703 14.1146H191.822L189.561 16.8269L191.91 19.7531Z" fill="#B7B7B7"/>
<path d="M196.259 14.1146H197.67V19.7532H196.766V14.792L194.139 19.7532H192.718V14.1146H193.633V19.0758L196.259 14.1146Z" fill="#B7B7B7"/>
<path d="M204.28 14.1146H205.852V19.7532H204.937V14.7713L203.064 19.7532H201.88L200.018 14.7713V19.7532H199.103V14.1146H200.686L202.484 19.2372L204.28 14.1146Z" fill="#B7B7B7"/>
<path d="M207.688 19.0923C207.203 18.5653 206.96 17.8452 206.96 16.9346C206.96 16.024 207.203 15.3039 207.688 14.7769C208.172 14.2498 208.819 13.9863 209.631 13.9863C210.442 13.9863 211.088 14.2498 211.569 14.7769C212.049 15.3039 212.291 16.024 212.291 16.9346C212.291 17.8452 212.05 18.5653 211.569 19.0923C211.088 19.6194 210.442 19.8829 209.631 19.8829C208.819 19.8829 208.172 19.6194 207.688 19.0923ZM208.365 15.3315C208.053 15.7329 207.897 16.2682 207.897 16.9346C207.897 17.6023 208.053 18.1363 208.365 18.5377C208.677 18.9392 209.1 19.1406 209.631 19.1406C210.154 19.1406 210.574 18.9392 210.886 18.5377C211.197 18.1363 211.353 17.601 211.353 16.9346C211.353 16.2669 211.197 15.7329 210.886 15.3315C210.574 14.93 210.155 14.7286 209.631 14.7286C209.1 14.7286 208.677 14.9286 208.365 15.3315Z" fill="#B7B7B7"/>
<path d="M213.074 16.9346C213.074 15.995 213.308 15.268 213.774 14.7548C214.241 14.2415 214.873 13.9849 215.669 13.9849C216.315 13.9849 216.859 14.1574 217.301 14.5009C217.742 14.8458 218.006 15.337 218.092 15.9757L217.187 16.0613C217.116 15.6239 216.942 15.2914 216.666 15.0665C216.39 14.8403 216.057 14.7272 215.669 14.7272C215.167 14.7272 214.765 14.9231 214.463 15.3135C214.162 15.7039 214.01 16.2448 214.01 16.9332C214.01 17.6216 214.162 18.1624 214.468 18.5529C214.774 18.9433 215.181 19.1392 215.69 19.1392C216.092 19.1392 216.431 19.0192 216.707 18.7791C216.983 18.5391 217.161 18.1969 217.24 17.7513L218.144 17.8272C218.058 18.4798 217.792 18.9861 217.348 19.3448C216.903 19.7035 216.35 19.8828 215.69 19.8828C214.878 19.8828 214.241 19.629 213.774 19.1185C213.308 18.6094 213.074 17.881 213.074 16.9346Z" fill="#B7B7B7"/>
<path d="M218.587 14.89V14.1146H223.346V14.89H221.44V19.7545H220.493V14.89H218.587Z" fill="#B7B7B7"/>
<path d="M227.823 14.1146H229.234V19.7532H228.33V14.792L225.703 19.7532H224.282V14.1146H225.197V19.0758L227.823 14.1146Z" fill="#B7B7B7"/>
</g>
<defs>
<clipPath id="clip0_395_870">
<rect width="230" height="22" fill="white"/>
</clipPath>
</defs>
</svg>
